<svg xmlns="http://www.w3.org/2000/svg" viewBox="28 27 266 62" role="img" aria-label="Silvair">
  <path fill="#111111" d="M83.5,84.6h-7.7c-0.8,0-1.5-0.7-1.5-1.5V35.8c0-3.7,3-6.8,6.8-6.8h4.3c0.8,0,1.5,0.7,1.5,1.5v50.7C86.9,83.1,85.3,84.6,83.5,84.6"/>
  <path fill="#111111" d="M109.2,29c0.8,0,1.5,0.7,1.5,1.5V73h18.9c0.9,0,1.5,0.7,1.5,1.5v8.7c0,0.8-0.6,1.5-1.5,1.5H99.7c-0.9,0-1.5-0.7-1.5-1.5V35.8c0-3.7,3-6.8,6.8-6.8H109.2z"/>
  <path fill="#111111" d="M130.1,29c2.7,0,5.1,1.6,6.2,4L148,58.9h0.5L160.2,33c1.1-2.4,3.5-4,6.2-4h7.2c1.2,0,1.8,1,1.4,2.1l-25,53.5c-0.2,0.5-0.7,0.9-1.4,0.9h-0.8c-0.6,0-1.1-0.4-1.4-0.9l-24.8-53.5c-0.5-1,0.2-2.1,1.4-2.1H130.1z"/>
  <path fill="#111111" d="M196.7,65.6l-6.6-14.2H190l-6.5,14.2H196.7z M163.5,82.6l24.9-53.5c0.2-0.5,0.8-0.9,1.4-0.9h0.8c0.6,0,1.1,0.4,1.4,0.9l24.9,53.5c0.5,1-0.2,2.1-1.4,2.1h-8.8c-1.4,0-2.1-0.5-2.8-2l-2.9-6.3h-19.4c-1.3,0-2.5,0.8-3.1,2l-2,4.4c-0.4,1-1.3,1.9-2.9,1.9h-8.7C163.6,84.6,163,83.6,163.5,82.6"/>
  <path fill="#111111" d="M271,52.8c3.3,0,6-3,6-6.4s-2.8-6-6-6h-11.8v12.4H271z M265.2,63.9h-6v19.3c0,0.8-0.7,1.5-1.5,1.5h-9.5c-0.9,0-1.5-0.7-1.5-1.5V30.5c0-0.8,0.6-1.5,1.5-1.5H272c9.5,0,17.3,7.7,17.3,17.2c0,7.3-4.1,13.4-11.4,16.6l10.6,19.5c0.6,1,0,2.3-1.4,2.3h-7.2c-2.5,0-4.9-1.4-6-3.7L265.2,63.9z"/>
  <path fill="#111111" d="M232,84.6h-7.7c-0.8,0-1.5-0.7-1.5-1.5V35.8c0-3.7,3-6.8,6.8-6.8h4.3c0.8,0,1.5,0.7,1.5,1.5v50.7C235.3,83.1,233.8,84.6,232,84.6"/>
  <path fill="#111111" d="M47.4,74.4c3.2,0,5.5-2,5.5-4.8c0-3.3-2.8-5.9-8.2-8c-6.8-2.7-15.4-8-15.4-17.6c0-7.9,6.1-15.8,18.4-15.8c8.3,0,14.6,4.2,17,6c0.8,0.6,1.1,1.5,0.4,2.7l-2.3,3.4c-1.6,2.4-4.9,3.1-7.4,1.7c-2.5-1.4-5.7-2.8-8.3-2.8c-2.9,0-5,1.9-5,4.1c0,2.9,2.4,5.2,8.7,7.7c6.2,2.5,16.1,7.3,16.1,18.1c0,8.2-7.1,16.5-18.8,16.5c-11,0-16.8-4.7-19.1-7.2c-0.7-0.8-0.8-1.9-0.3-2.7l3.4-5.5c0.7-1.1,2.2-1.4,3.2-0.6C37.9,71.3,43,74.4,47.4,74.4"/>
</svg>
