<?xml version="1.0" encoding="UTF-8"?>
<svg id="Layer_2" data-name="Layer 2" xmlns="http://www.w3.org/2000/svg" viewBox="0 0 37.76 37.76">
  <defs>
    <style>
      .cls-1 {
        fill: #010101;
      }

      .cls-2 {
        fill: none;
        stroke: #231f20;
        stroke-miterlimit: 10;
        stroke-width: .75px;
      }
    </style>
  </defs>
  <g id="Layer_1-2" data-name="Layer 1">
    <rect class="cls-2" x=".38" y=".38" width="37.01" height="37.01" rx="3.62" ry="3.62"/>
    <g>
      <path class="cls-1" d="M8.32,24.76v-2.32c0-.7,.09-1.25,.27-1.65,.18-.4,.45-.74,.81-1,.36-.26,.82-.54,1.38-.81,.46-.22,.84-.46,1.13-.69s.51-.53,.65-.88c.15-.35,.22-.78,.22-1.3,0-.57-.1-1-.29-1.3-.19-.3-.52-.45-.98-.45-.44,0-.76,.16-.96,.49s-.31,.81-.31,1.46v.87h-1.88v-1.37c0-.95,.27-1.66,.81-2.12,.54-.46,1.33-.69,2.36-.69,.81,0,1.44,.11,1.91,.34s.8,.57,1,1.04,.3,1.07,.3,1.81c0,.91-.17,1.66-.5,2.24s-.85,1.07-1.56,1.47c-.36,.17-.68,.34-.98,.51-.3,.17-.55,.37-.77,.59s-.36,.51-.43,.85c-.07,.21-.12,.43-.16,.64-.04,.22-.07,.45-.08,.7h4.56v1.56h-6.5Z"/>
      <path class="cls-1" d="M19.12,24.76v-2.32h-3.9v-1.51l3.98-7.88h1.82v8.1h1.17v1.29h-1.17v2.32h-1.9Zm-2.38-3.61h2.38v-4.75l-2.38,4.75Z"/>
      <path class="cls-1" d="M24.8,24.76l-2.02-11.71h1.94l1.41,9.59h-.02l1.45-9.59h1.88l-2.04,11.71h-2.6Z"/>
    </g>
  </g>
</svg>